<svg xmlns="http://www.w3.org/2000/svg" version="1.1" xmlns:xlink="http://www.w3.org/1999/xlink" xmlns:svgjs="http://svgjs.dev/svgjs" width="100%" height="100%" viewBox="0 0 1000 600"><rect width="1000" height="600" x="0" y="0" fill="#533549"/><g><circle r="166.66666666666666" cx="311.18398539225257" cy="333.40621531682893" fill="#f6b042" transform="matrix(0.8649483279953323,0,0,0.8649483279953325,0,11.620864438616351)"/><path d="M302.71009842805717 258.4062309437383L302.71009842805717 258.4062309437383Q340.63673666582565 258.4062309437383 359.0557246695829 277.3842617143827Q377.50413597686054 296.3328691815068 377.50413597686054 331.7291033165227L377.50413597686054 331.7291033165227Q377.50413597686054 354.7969732764998 368.5006050996245 372.0684524429622Q359.49707422238856 389.33993160942464 342.31386496648724 398.8730819500274Q325.1600790141064 408.4062322906302 300.7975836992325 408.4062322906302L300.7975836992325 408.4062322906302Q297.6198669190316 408.4062322906302 292.3236722853634 408.2002691659876Q287.0274776516952 407.9943060413449 281.4076266793028 407.87661282726344Q275.81719901043084 407.7589196131819 271.13889375069056 407.7589196131819L271.13889375069056 407.7589196131819Q263.724221263555 407.7589196131819 256.5155119010622 407.87661282726344Q249.33622584208973 407.9943060413449 244.8638837069921 408.4062322906302L244.8638837069921 408.4062322906302L244.8638837069921 404.1692765836957Q252.07259306948498 403.7573503344104 255.77992931305272 402.4627249795136Q259.48726555662046 401.19752292813735 260.7524676079968 397.40191677400844Q262.04709296289343 393.57688731635926 262.04709296289343 385.95625170458106L262.04709296289343 385.95625170458106L262.04709296289343 280.8856348333078Q262.04709296289343 273.02961279336665 260.7524676079968 269.32227654979886Q259.48726555662046 265.6149403062311 255.77992931305272 264.2320450407733Q252.07259306948498 262.87857307883587 244.8638837069921 262.6431866506729L244.8638837069921 262.6431866506729L244.8638837069921 258.4062309437383Q249.33622584208973 258.64161737190136 256.5155119010622 258.93585040710514Q263.724221263555 259.2595067458293 270.7269675014052 259.05354362118663L270.7269675014052 259.05354362118663Q278.14163998854076 258.84758049654397 287.4688272045008 258.64161737190136Q296.7665911169406 258.4062309437383 302.71009842805717 258.4062309437383ZM297.41390379438894 262.23126040138754L297.41390379438894 262.23126040138754Q287.67479032914355 262.23126040138754 284.70303667358525 265.8209034308738Q281.73128301802694 269.4399697638804 281.73128301802694 280.44428528050213L281.73128301802694 280.44428528050213L281.73128301802694 386.3681779538664Q281.73128301802694 397.40191677400844 284.82072988766674 400.99155980349474Q287.88075345378616 404.5812028329809 297.6198669190316 404.5812028329809L297.6198669190316 404.5812028329809Q320.71716018252914 404.5812028329809 333.4280273033328 396.22498463319334Q346.13889442413654 387.86876643340565 351.2291259331621 371.74479610423805Q356.31935744218765 355.6502490785907 356.31935744218765 332.55295581509324L356.31935744218765 332.55295581509324Q356.31935744218765 308.8377731776678 350.6995064697953 293.2728456153874Q345.0796554974029 277.7079180531069 332.2510951625177 269.96958922724724Q319.45195813115276 262.23126040138754 297.41390379438894 262.23126040138754Z " fill="#533549" transform="matrix(0.8649483279953323,0,0,0.8649483279953325,0,11.620864438616351)"/><path d="M591.5468722526148 265.6417320431918L591.5468722526148 265.6417320431918Q599.4162977610085 265.6417320431918 603.5040271223131 267.4560718131826Q607.6136159989187 269.2704115831733 610.7613862022762 271.4782226285838L610.7613862022762 271.4782226285838Q612.6413045181703 272.5711983936385 613.8217183444293 273.11768627616584Q615.0021321706884 273.6641741586932 616.095107935743 273.6641741586932L616.095107935743 273.6641741586932Q617.6689930374218 273.6641741586932 618.3903570423579 271.9372724499068Q619.0898615319929 270.21037074112036 619.5707708686169 266.75656732354753L619.5707708686169 266.75656732354753L623.1775908932974 266.75656732354753Q623.0245742861897 269.423428190281 622.7841196178776 273.11768627616584Q622.5655244648667 276.81194436205067 622.4780864036624 282.8888896157547Q622.390648342458 288.9439753541576 622.390648342458 298.84633578555304L622.390648342458 298.84633578555304L618.7838283177775 298.84633578555304Q618.3029189811534 291.3048030066758 615.4830415073125 284.375336656229Q612.6413045181703 277.44587030578236 607.2201447234991 273.0521077302625Q601.7771254135266 268.6364856394416 592.9677407471859 268.6364856394416L592.9677407471859 268.6364856394416Q584.6174059021681 268.6364856394416 579.1962461074969 273.6641741586932Q573.7750863128257 278.71372219324576 573.7750863128257 286.8891809158548L573.7750863128257 286.8891809158548Q573.7750863128257 293.97166387340917 577.381906337506 298.7807572396498Q581.0105858774878 303.5679910905893 587.0656716158906 307.43712529888285Q593.1207573542936 311.2843999918754 600.2032403118479 315.70002208269625L600.2032403118479 315.70002208269625Q608.400558549758 320.7277106019478 614.7616775023763 325.68982057529615Q621.1446559702956 330.6519305486444 624.8389140561806 336.61957822584293Q628.5331721420653 342.6090854183426 628.5331721420653 351.11243687046806L628.5331721420653 351.11243687046806Q628.5331721420653 361.1896734242722 623.9645334441368 367.79124704520257Q619.4177542615093 374.3928206661328 611.8543619673309 377.715466991899Q604.2909696731524 381.0162538023642 595.1755517925964 381.0162538023642L595.1755517925964 381.0162538023642Q586.8252169475786 381.0162538023642 581.9505450354347 379.1144759711691Q577.0758731232909 377.234557655275 573.6002101904169 375.1797632169722L573.6002101904169 375.1797632169722Q570.1464067728441 372.99381168686284 568.2664884569501 372.99381168686284L568.2664884569501 372.99381168686284Q566.6926033552713 372.99381168686284 565.9712393503353 374.7207133956492Q565.2717348607002 376.4476151044356 564.7908255240761 379.9014185220084L564.7908255240761 379.9014185220084L561.1840054993957 379.9014185220084Q561.490038713611 376.6006317115433 561.5774767748154 372.1194310748191Q561.6430553207188 367.63823043809487 561.730493381923 360.4027308734329Q561.7960719278263 353.14537179346974 561.7960719278263 342.1281760817185L561.7960719278263 342.1281760817185L565.4247514678079 342.1281760817185Q566.0586774115396 351.57148669179105 568.9659929465851 359.7688049297011Q571.8733084816306 367.94426365231016 577.9283942200334 372.9063736256585Q584.0053394737375 377.8684835990067 594.0607165122406 377.8684835990067L594.0607165122406 377.8684835990067Q599.2632811539008 377.8684835990067 603.8974983977328 375.74811061480057Q608.5535751568657 373.6058781152934 611.5483287531156 368.9716608714616Q614.5212228340642 364.3374436276297 614.5212228340642 356.9270679405589L614.5212228340642 356.9270679405589Q614.5212228340642 350.47851092673636 611.4608906919111 345.66941756049573Q608.400558549758 340.8821837095562 602.8919606938824 336.7070162870473Q597.3833628380069 332.53184886453846 589.9729871509361 328.1380862890186L589.9729871509361 328.1380862890186Q582.5844709791664 323.56944759109 576.1359139653438 318.84779228605373Q569.66549743622 314.12613698101757 565.8182227432276 307.89617512020584Q561.9709480502352 301.68807277469523 561.9709480502352 292.8786881083545L561.9709480502352 292.8786881083545Q561.9709480502352 283.5883941053897 566.1242559574429 277.5333083669867Q570.2994233799518 271.4782226285838 577.0758731232909 268.54904757823726Q583.8304633513287 265.6417320431918 591.5468722526148 265.6417320431918ZM679.0505120028928 295.54554897508797L679.0505120028928 295.54554897508797Q692.9094447037862 295.54554897508797 700.6914321509755 303.96146236600896Q708.495279113466 312.3992352722312 708.495279113466 330.17102121202026L708.495279113466 330.17102121202026L652.9283912180858 330.17102121202026L652.7753746109782 327.1762676157705L693.3903540404103 327.1762676157705Q693.6963872546256 319.48171822978554 692.1225021529468 312.9457231547585Q690.5486170512681 306.4097280797315 687.1603921795986 302.4750153255346Q683.7721673079291 298.54030257133775 678.4384455744622 298.54030257133775L678.4384455744622 298.54030257133775Q671.1810864944991 298.54030257133775 665.6069100927202 305.7758021359998Q660.0108741756402 313.01130170066176 658.9178984105855 328.75015271744917L658.9178984105855 328.75015271744917L659.3769482319085 329.384078661181Q659.0709150176932 331.74490631369906 658.9178984105855 334.58664330284125Q658.7648818034779 337.4065207766823 658.7648818034779 340.2482577658245L658.7648818034779 340.2482577658245Q658.7648818034779 350.95942026336036 662.2186852210507 358.6539696493454Q665.6724886386235 366.3703785506315 671.2685245557035 370.3925293660327Q676.8645604727834 374.3928206661328 682.8322081499821 374.3928206661328L682.8322081499821 374.3928206661328Q687.5538634550182 374.3928206661328 691.8164689387315 372.9063736256585Q696.0572149071437 371.41992658518404 699.6858944471253 367.94426365231016Q703.2927144718057 364.4904602347374 705.9814348538403 358.6539696493454L705.9814348538403 358.6539696493454L709.1292050571977 359.9218215368088Q707.3804438331102 365.1243861784691 703.4457310789134 369.99905809061295Q699.5110183247165 374.87373000275693 693.5433706475179 377.93406214490994Q687.5538634550182 381.0162538023642 679.6844379466245 381.0162538023642L679.6844379466245 381.0162538023642Q668.361209020658 381.0162538023642 660.2513288439523 375.8136891607039Q652.1414486672466 370.63298403434464 647.81326463763 361.40826857728314Q643.4850806080134 352.20541263552275 643.4850806080134 340.2482577658245L643.4850806080134 340.2482577658245Q643.4850806080134 326.3893250649311 647.9007026988343 316.3995265723313Q652.2944652743541 306.4097280797315 660.3387669051566 300.9885682850603Q668.361209020658 295.54554897508797 679.0505120028928 295.54554897508797ZM784.9817231519928 296.96641746965906L784.9817231519928 296.96641746965906L739.4920718104169 376.4476151044356L756.8048079288831 376.4476151044356Q763.100348335598 376.4476151044356 767.756425094731 373.9337708448098Q772.3906423385628 371.41992658518404 775.232379327705 365.8238906681041Q778.052256801546 360.2278547510241 778.6861827452778 351.11243687046806L778.6861827452778 351.11243687046806L782.3148622852593 351.11243687046806Q782.3148622852593 361.1896734242722 782.467878892367 368.09728025941786Q782.6208954994746 375.0267466098645 782.9269287136899 379.4423687006855L782.9269287136899 379.4423687006855Q776.0193218785444 379.1144759711691 768.5433676455704 378.9614593640614Q761.0674134125964 378.8084427569537 753.6570377255256 378.8084427569537L753.6570377255256 378.8084427569537Q745.7876122171318 378.8084427569537 737.6121534945228 379.04889742526575Q729.4148352566126 379.2893520935778 721.8733024777354 379.5953853077931L721.8733024777354 379.5953853077931L767.3629538193113 300.11418767301654L750.0502177008451 300.11418767301654Q743.1207513503983 300.11418767301654 738.4646745912654 302.62803193264233Q733.8304573474336 305.141876192268 731.382191633711 310.73791210934803Q728.9557854352897 316.33394802642806 728.1688428844503 325.4493659069841L728.1688428844503 325.4493659069841L724.5401633444687 325.4493659069841Q724.5401633444687 315.21911274607226 724.387146737361 308.37708445682995Q724.2341301302534 301.53505616758764 723.906237400737 297.11943407676665L723.906237400737 297.11943407676665Q730.8357037511837 297.44732680628306 738.3116579841578 297.60034341339076Q745.7876122171318 297.75336002049835 753.1979879042026 297.75336002049835L753.1979879042026 297.75336002049835Q761.0674134125964 297.75336002049835 769.2428721352053 297.5129053521864Q777.4183308578143 297.27245068387435 784.9817231519928 296.96641746965906ZM824.3288506939614 408.40622647463454L824.3288506939614 408.40622647463454Q815.9785158489435 408.40622647463454 808.5899996771739 406.65746525054703Q801.2014835054042 404.93056354176065 796.698423353379 401.2363054558758Q792.2172227166548 397.542047369991 792.2172227166548 391.88043290700773L792.2172227166548 391.88043290700773Q792.2172227166548 386.37183505113217 796.6328448074757 382.4371222969353Q801.0266073829955 378.5024095427384 808.5899996771739 376.4476151044356L808.5899996771739 376.4476151044356L809.529958835121 378.9614593640614Q806.0761554175482 380.0762946444172 804.0213609792454 383.3770814548823Q801.9884260562436 386.67786826534746 801.9884260562436 390.7655976266519L801.9884260562436 390.7655976266519Q801.9884260562436 398.001097191314 808.6774377383783 401.8702313996075Q815.3664494205129 405.71750609260005 826.0557524027478 405.71750609260005L826.0557524027478 405.71750609260005Q833.1382353603021 405.71750609260005 839.9146851036412 403.9031663226093Q846.669275331679 402.1106860679196 851.0848974225 397.8480805842063Q855.500519513321 393.6073346157941 855.500519513321 386.67786826534746L855.500519513321 386.67786826534746Q855.500519513321 381.4753036236872 851.7844019121351 378.10893826731876Q848.0901438262501 374.7207133956492 837.2259647216066 374.7207133956492L837.2259647216066 374.7207133956492L825.5967025814248 374.7207133956492Q820.5471545468722 374.7207133956492 815.8254992418359 373.9337708448098Q811.1038439367996 373.14682829397043 808.1090903405499 370.63298403434464Q805.1361962596011 368.09728025941786 805.1361962596011 362.9165751330587L805.1361962596011 362.9165751330587Q805.1361962596011 357.5609938842907 809.529958835121 352.5988839109424Q813.9455809259418 347.63677393759417 825.7497191885325 342.456068811235L825.7497191885325 342.456068811235L827.6296375044265 343.876937305806Q822.2740562556586 346.69681477964707 818.3393435014617 349.6041303146926Q814.4046307472648 352.53330536503915 814.4046307472648 356.46801811923604L814.4046307472648 356.46801811923604Q814.4046307472648 361.4957066384875 821.9680230414433 361.4957066384875L821.9680230414433 361.4957066384875L841.6415868124276 361.4957066384875Q848.2431604333578 361.4957066384875 853.8391963504378 363.3756249543816Q859.4352322675178 365.2774027855768 862.8890356850907 369.36513214688125Q866.3428391026634 373.45286150818583 866.3428391026634 380.0762946444172L866.3428391026634 380.0762946444172Q866.3428391026634 387.46481081618685 861.6211837976272 393.9133678300094Q856.8995284925909 400.36192484383207 847.5436559437228 404.3840756592333Q838.1877833948547 408.40622647463454 824.3288506939614 408.40622647463454ZM825.1157932448007 345.275946285076L825.1157932448007 345.275946285076Q817.3993843435146 345.275946285076 811.1038439367996 342.69652347954695Q804.8083035300847 340.0952411587168 801.2014835054042 334.58664330284125Q797.5728039654227 329.0780454469656 797.5728039654227 320.42167738773253L797.5728039654227 320.42167738773253Q797.5728039654227 311.76530932849937 801.2014835054042 306.2567114726238Q804.8083035300847 300.74811361674824 811.1038439367996 298.1468312959181Q817.3993843435146 295.54554897508797 825.1157932448007 295.54554897508797L825.1157932448007 295.54554897508797Q832.9852187531944 295.54554897508797 839.193321098705 298.1468312959181Q845.4232829595168 300.74811361674824 849.0301029841972 306.2567114726238Q852.6587825241788 311.76530932849937 852.6587825241788 320.42167738773253L852.6587825241788 320.42167738773253Q852.6587825241788 329.0780454469656 849.0301029841972 334.58664330284125Q845.4232829595168 340.0952411587168 839.193321098705 342.69652347954695Q832.9852187531944 345.275946285076 825.1157932448007 345.275946285076ZM825.1157932448007 342.456068811235L825.1157932448007 342.456068811235Q831.1053004373005 342.456068811235 834.4716657936688 337.73441350619873Q837.8598906653383 333.01275820116246 837.8598906653383 320.42167738773253L837.8598906653383 320.42167738773253Q837.8598906653383 307.8305965743026 834.4716657936688 303.1089412692663Q831.1053004373005 298.38728596423016 825.1157932448007 298.38728596423016L825.1157932448007 298.38728596423016Q819.3011621747098 298.38728596423016 815.8254992418359 303.1089412692663Q812.3716958242632 307.8305965743026 812.3716958242632 320.42167738773253L812.3716958242632 320.42167738773253Q812.3716958242632 333.01275820116246 815.8254992418359 337.73441350619873Q819.3011621747098 342.456068811235 825.1157932448007 342.456068811235ZM847.784110612035 308.6175391251419L847.784110612035 308.6175391251419L844.9423736228928 307.5027038447862Q847.1501846683032 302.16898211131934 852.5057659170711 298.05939323471375Q857.8613471658391 293.97166387340917 863.67597823593 293.97166387340917L863.67597823593 293.97166387340917Q867.7637075972345 293.97166387340917 870.2775518568603 296.266912980024Q872.8132556317871 298.54030257133775 872.8132556317871 303.1089412692663L872.8132556317871 303.1089412692663Q872.8132556317871 307.9836131814102 870.211973310957 309.95096955850863Q867.6106909901268 311.9183259356071 864.9438301233934 311.9183259356071L864.9438301233934 311.9183259356071Q862.5830024708753 311.9183259356071 860.5282080325725 310.2570027727239Q858.4734135942697 308.6175391251419 858.1673803800544 304.9888595851604Q857.8613471658391 301.38203956047994 860.3751914254649 295.69856558219556L860.3751914254649 295.69856558219556L862.4081263484666 296.17947491881966Q855.8065527275362 298.69331917844545 852.9648157383941 301.4476181063832Q850.144938264553 304.201917034321 847.784110612035 308.6175391251419ZM896.4215321569684 258.4062324785298L896.4215321569684 258.4062324785298Q900.5092615182729 258.4062324785298 903.5040151145226 261.4009860747796Q906.4769091954714 264.39573967102945 906.4769091954714 268.4834690323339L906.4769091954714 268.4834690323339Q906.4769091954714 272.5711983936385 903.5040151145226 275.5659519898883Q900.5092615182729 278.56070558613817 896.4215321569684 278.56070558613817L896.4215321569684 278.56070558613817Q892.3119432803627 278.56070558613817 889.3390491994139 275.5659519898883Q886.3442956031641 272.5711983936385 886.3442956031641 268.4834690323339L886.3442956031641 268.4834690323339Q886.3442956031641 264.39573967102945 889.3390491994139 261.4009860747796Q892.3119432803627 258.4062324785298 896.4215321569684 258.4062324785298ZM904.5969908795773 296.02645831171196L904.5969908795773 296.02645831171196L904.5969908795773 364.162567505221Q904.5969908795773 370.78600064145235 907.3512898075152 373.14682829397043Q910.105588735453 375.5076559464886 916.5541457492757 375.5076559464886L916.5541457492757 375.5076559464886L916.5541457492757 378.8084427569537Q913.8872848825422 378.6554261498461 908.4442655725697 378.41497148153405Q903.0231057778985 378.174516813222 897.5145079220231 378.174516813222L897.5145079220231 378.174516813222Q892.158926673255 378.174516813222 886.6503288173794 378.41497148153405Q881.1417309615039 378.6554261498461 878.4748700947705 378.8084427569537L878.4748700947705 378.8084427569537L878.4748700947705 375.5076559464886Q884.9234271085929 375.5076559464886 887.6777260365309 373.14682829397043Q890.4320249644686 370.78600064145235 890.4320249644686 364.162567505221L890.4320249644686 364.162567505221L890.4320249644686 314.91307953185697Q890.4320249644686 307.8305965743026 887.9181807048428 304.44237170263307Q885.404336445217 301.05414683096353 878.4748700947705 301.05414683096353L878.4748700947705 301.05414683096353L878.4748700947705 297.75336002049835Q883.502558614022 298.23426935712246 888.2242139190582 298.23426935712246L888.2242139190582 298.23426935712246Q892.7928526169867 298.23426935712246 896.9680200394956 297.665921959294Q901.1431874620046 297.11943407676665 904.5969908795773 296.02645831171196ZM977.4766148934236 295.54554897508797L977.4766148934236 295.54554897508797Q983.4442625706222 295.54554897508797 987.4664133860235 297.11943407676665Q991.4667046861236 298.69331917844545 994.1554250681581 301.53505616758764L994.1554250681581 301.53505616758764Q997.1501786644079 304.6828263709451 998.3961710365704 309.4044816759813Q999.6640229240338 314.12613698101757 999.6640229240338 322.1485790965189L999.6640229240338 322.1485790965189L999.6640229240338 364.162567505221Q999.6640229240338 370.78600064145235 1002.4183218519715 373.14682829397043Q1005.1726207799093 375.5076559464886 1011.6211777937319 375.5076559464886L1011.6211777937319 375.5076559464886L1011.6211777937319 378.8084427569537Q1008.9543169269984 378.6554261498461 1003.445719071123 378.41497148153405Q997.9371212152473 378.174516813222 992.734556573587 378.174516813222L992.734556573587 378.174516813222Q987.5319919319268 378.174516813222 982.5917414738797 378.41497148153405Q977.6296315005313 378.6554261498461 975.1157872409055 378.8084427569537L975.1157872409055 378.8084427569537L975.1157872409055 375.5076559464886Q980.7774017038888 375.5076559464886 983.1382293564069 373.14682829397043Q985.4990570089251 370.78600064145235 985.4990570089251 364.162567505221L985.4990570089251 364.162567505221L985.4990570089251 318.69477567894614Q985.4990570089251 313.79824425150116 984.7121144580856 309.7105148901966Q983.9251719072463 305.6227855288921 981.1708729793085 303.1089412692663Q978.4165740513707 300.59509700964054 972.7549595883875 300.59509700964054L972.7549595883875 300.59509700964054Q966.1315264521561 300.59509700964054 961.1694164788078 304.3549336414287Q956.2291660207607 308.1366297885179 953.4748670928227 314.6726248635449Q950.720568164885 321.2086199385719 950.720568164885 329.2310620540733L950.720568164885 329.2310620540733L950.720568164885 364.162567505221Q950.720568164885 370.78600064145235 953.0813958174031 373.14682829397043Q955.4422234699213 375.5076559464886 961.1038379329045 375.5076559464886L961.1038379329045 375.5076559464886L961.1038379329045 378.8084427569537Q958.5899936732787 378.6554261498461 953.6278836999304 378.41497148153405Q948.6657737265822 378.174516813222 943.4632090849218 378.174516813222L943.4632090849218 378.174516813222Q938.2825039585628 378.174516813222 932.7739061026871 378.41497148153405Q927.2653082468114 378.6554261498461 924.5765878647769 378.8084427569537L924.5765878647769 378.8084427569537L924.5765878647769 375.5076559464886Q931.0470043939008 375.5076559464886 933.8013033218385 373.14682829397043Q936.5556022497763 370.78600064145235 936.5556022497763 364.162567505221L936.5556022497763 364.162567505221L936.5556022497763 314.91307953185697Q936.5556022497763 307.8305965743026 934.0198984748495 304.44237170263307Q931.5060542152237 301.05414683096353 924.5765878647769 301.05414683096353L924.5765878647769 301.05414683096353L924.5765878647769 297.75336002049835Q929.6261358993296 298.23426935712246 934.3477912043659 298.23426935712246L934.3477912043659 298.23426935712246Q938.9164299022945 298.23426935712246 943.0697378095022 297.665921959294Q947.2449052320112 297.11943407676665 950.720568164885 296.02645831171196L950.720568164885 296.02645831171196L950.720568164885 314.58518680234056Q954.8082975261896 303.8958838201057 962.1312351520559 299.7207163975968Q969.4323132626212 295.54554897508797 977.4766148934236 295.54554897508797Z " fill="#f6b042" transform="matrix(0.8649483279953323,0,0,0.8649483279953325,0,11.620864438616351)"/></g></svg>